HIERARCHY
ROOT Hips
{
	OFFSET 0.000000 0.000000 0.000000
	CHANNELS 6 Xposition Yposition Zposition Zrotation Yrotation Xrotation 
	JOINT LHipJoint
	{
		OFFSET 0.000000 0.000000 0.000000
		CHANNELS 3 Zrotation Yrotation Xrotation
		JOINT LeftUpLeg
		{
			OFFSET 1.363060 -1.794630 0.839290
			CHANNELS 3 Zrotation Yrotation Xrotation
			JOINT LeftLeg
			{
				OFFSET 2.448110 -6.726130 0.000000
				CHANNELS 3 Zrotation Yrotation Xrotation
				JOINT LeftFoot
				{
					OFFSET 2.562200 -7.039590 0.000000
					CHANNELS 3 Zrotation Yrotation Xrotation
					JOINT LeftToeBase
					{
						OFFSET 0.157640 -0.433110 2.322550
						CHANNELS 3 Zrotation Yrotation Xrotation
						End Site
						{
							OFFSET 0.000000 0.000000 0.000000
						}
					}
				}
			}
		}
	}
	JOINT RHipJoint
	{
		OFFSET 0.000000 0.000000 0.000000
		CHANNELS 3 Zrotation Yrotation Xrotation
		JOINT RightUpLeg
		{
			OFFSET -1.305520 -1.794630 0.839290
			CHANNELS 3 Zrotation Yrotation Xrotation
			JOINT RightLeg
			{
				OFFSET -2.542530 -6.985550 0.000000
				CHANNELS 3 Zrotation Yrotation Xrotation
				JOINT RightFoot
				{
					OFFSET -2.568260 -7.056230 0.000000
					CHANNELS 3 Zrotation Yrotation Xrotation
					JOINT RightToeBase
					{
						OFFSET -0.164730 -0.452590 2.363150
						CHANNELS 3 Zrotation Yrotation Xrotation
						End Site
						{
							OFFSET 0.000000 0.000000 0.000000
						}
					}
				}
			}
		}
	}
	JOINT LowerBack
	{
		OFFSET 0.000000 0.000000 0.000000
		CHANNELS 3 Zrotation Yrotation Xrotation
		JOINT Spine
		{
			OFFSET 0.028270 2.035590 -0.193380
			CHANNELS 3 Zrotation Yrotation Xrotation
			JOINT Spine1
			{
				OFFSET 0.056720 2.048850 -0.042750
				CHANNELS 3 Zrotation Yrotation Xrotation
				JOINT Neck
				{
					OFFSET 0.000000 0.000000 0.000000
					CHANNELS 3 Zrotation Yrotation Xrotation
					JOINT Neck1
					{
						OFFSET -0.054170 1.746240 0.172020
						CHANNELS 3 Zrotation Yrotation Xrotation
						JOINT Head
						{
							OFFSET 0.104070 1.761360 -0.123970
							CHANNELS 3 Zrotation Yrotation Xrotation
							End Site
							{
								OFFSET 0.000000 0.000000 0.000000
							}
						}
					}
				}
				JOINT LeftShoulder
				{
					OFFSET 0.000000 0.000000 0.000000
					CHANNELS 3 Zrotation Yrotation Xrotation
					JOINT LeftArm
					{
						OFFSET 3.362410 1.200890 -0.311210
						CHANNELS 3 Zrotation Yrotation Xrotation
						JOINT LeftForeArm
						{
							OFFSET 4.983000 -0.000000 -0.000000
							CHANNELS 3 Zrotation Yrotation Xrotation
							JOINT LeftHand
							{
								OFFSET 3.483560 -0.000000 -0.000000
								CHANNELS 3 Zrotation Yrotation Xrotation
								JOINT LeftFingerBase
								{
									OFFSET 0.000000 0.000000 0.000000
									CHANNELS 3 Zrotation Yrotation Xrotation
									JOINT LeftHandIndex1
									{
										OFFSET 0.715260 -0.000000 -0.000000
										CHANNELS 3 Zrotation Yrotation Xrotation
										End Site
										{
											OFFSET 0.000000 0.000000 0.000000
										}
									}
								}
								JOINT LThumb
								{
									OFFSET 0.000000 0.000000 0.000000
									CHANNELS 3 Zrotation Yrotation Xrotation
									End Site
									{
										OFFSET 0.000000 0.000000 0.000000
									}
								}
							}
						}
					}
				}
				JOINT RightShoulder
				{
					OFFSET 0.000000 0.000000 0.000000
					CHANNELS 3 Zrotation Yrotation Xrotation
					JOINT RightArm
					{
						OFFSET -3.136600 1.374050 -0.404650
						CHANNELS 3 Zrotation Yrotation Xrotation
						JOINT RightForeArm
						{
							OFFSET -5.241900 -0.000000 -0.000000
							CHANNELS 3 Zrotation Yrotation Xrotation
							JOINT RightHand
							{
								OFFSET -3.444170 -0.000000 -0.000000
								CHANNELS 3 Zrotation Yrotation Xrotation
								JOINT RightFingerBase
								{
									OFFSET 0.000000 0.000000 0.000000
									CHANNELS 3 Zrotation Yrotation Xrotation
									JOINT RightHandIndex1
									{
										OFFSET -0.622530 -0.000000 -0.000000
										CHANNELS 3 Zrotation Yrotation Xrotation
										End Site
										{
											OFFSET 0.000000 0.000000 0.000000
										}
									}
								}
								JOINT RThumb
								{
									OFFSET 0.000000 0.000000 0.000000
									CHANNELS 3 Zrotation Yrotation Xrotation
									End Site
									{
										OFFSET 0.000000 0.000000 0.000000
									}
								}
							}
						}
					}
				}
			}
		}
	}
}
MOTION
Frames: 10
Frame Time: 0.008333
-1.582661 17.574611 -1.752647 -124.619185 84.861403 -106.747857 -11.572064 2.589509 0.760768 -9.468546 -3.103846 -4.204301 -0.510775 1.034000 20.649097 0.917894 5.925350 7.002091 1.432600 0.000000 -54.099400 7.229033 -0.610146 2.705142 9.282514 5.881438 -31.913769 3.540030 0.789021 6.769454 -0.345466 -1.270285 -1.364492 -0.694600 -0.000000 -52.308100 4.022490 -4.046915 -2.231221 0.779851 -4.361602 -3.525671 -5.426450 -4.310638 -1.362130 9.617827 -18.057180 -10.466316 -2.333687 -0.147845 -0.727005 0.000000 0.000000 0.000000 7.557965 6.485714 -0.639693 -78.526748 4.733898 33.801237 -179.581342 -67.681358 179.971218 3.003005 -4.984423 -0.146553 -0.013667 0.717328 0.000000 0.000000 0.000000 0.000000 0.000000 0.000000 0.000000 5.586341 -12.515400 -0.835533 70.237476 -16.343448 26.280483 179.701228 72.416848 179.969207 -4.120459 9.981691 -0.381005 0.027471 -0.566610 0.000000 0.000000 0.000000 0.000000 0.000000 0.000000 0.000000 
-1.342842 17.600837 -1.766775 -126.885064 84.752610 -109.159720 -11.583906 2.644681 0.701440 -9.523434 -3.173719 -3.786295 -0.381511 1.131524 21.525720 1.057369 6.907898 8.034323 1.761900 -0.000000 -52.159300 7.212087 -0.517216 2.773536 9.103879 5.845679 -31.336225 3.674180 1.075411 4.450770 -0.108477 -0.156585 -0.940193 -0.540400 -0.000000 -53.308900 4.017679 -4.045390 -2.220986 0.789734 -4.358015 -3.523735 -5.375384 -4.308896 -1.353777 9.508421 -18.165648 -10.471145 -2.288028 -0.144224 -0.726080 0.000000 0.000000 0.000000 7.665408 6.469672 -0.654852 -78.761751 4.789122 33.995804 -179.578339 -67.781515 179.974643 2.622644 -4.807970 -0.122850 0.000968 0.709541 0.000000 0.000000 0.000000 0.000000 0.000000 0.000000 0.000000 5.317575 -12.600165 -0.847041 70.365256 -16.937742 25.730430 179.705970 72.296584 179.970144 -3.867204 9.977712 -0.356594 0.018312 -0.562918 -0.000000 0.000000 0.000000 0.000000 0.000000 0.000000 0.000000 
-1.104472 17.616642 -1.780242 -129.277022 84.644267 -111.703610 -11.591068 2.684340 0.630649 -9.627001 -3.160088 -3.600599 -0.250739 1.230943 22.854410 1.235474 8.174358 8.640927 2.150700 0.000000 -49.835400 7.215812 -0.431622 2.821453 8.900098 5.779243 -30.915476 3.777208 1.281387 2.766810 0.114363 0.969284 -0.608550 -0.369300 -0.000000 -54.446101 3.984107 -4.039128 -2.192509 0.790213 -4.347230 -3.518889 -5.334947 -4.299424 -1.348947 9.413839 -18.259096 -10.475015 -2.248328 -0.141040 -0.725368 0.000000 0.000000 0.000000 7.759669 6.447493 -0.669604 -78.983855 4.836763 34.174824 -179.580863 -67.928628 179.977199 2.344371 -4.628831 -0.105212 0.011938 0.701259 0.000000 0.000000 0.000000 0.000000 0.000000 0.000000 0.000000 5.093559 -12.670411 -0.851254 70.502828 -17.469695 25.185411 179.708804 72.217331 179.971078 -3.617852 9.992338 -0.333178 0.009647 -0.559833 -0.000000 0.000000 0.000000 0.000000 0.000000 0.000000 0.000000 
-0.867993 17.621599 -1.792960 -131.601383 84.527150 -114.185666 -11.600659 2.705392 0.538072 -9.746149 -3.028353 -3.638309 -0.119178 1.332945 24.608291 1.448616 9.687605 8.846670 2.580199 -0.000000 -47.180500 7.232548 -0.363570 2.862204 8.668376 5.756982 -30.621693 3.848733 1.408150 1.672219 0.311981 2.022804 -0.312186 -0.201299 0.000000 -55.741800 3.935193 -4.025991 -2.144620 0.784048 -4.328044 -3.510834 -5.304942 -4.280910 -1.347022 9.333379 -18.332332 -10.478103 -2.214585 -0.138285 -0.725048 0.000000 0.000000 0.000000 7.839627 6.429566 -0.682922 -79.190263 4.868392 34.340375 -179.587867 -68.117056 179.978869 2.171140 -4.448968 -0.093437 0.019000 0.692712 0.000000 0.000000 0.000000 0.000000 0.000000 0.000000 0.000000 4.911541 -12.720463 -0.849219 70.653522 -17.933228 24.652513 179.710826 72.188271 179.971944 -3.388234 10.011526 -0.311855 0.001840 -0.556996 0.000000 0.000000 0.000000 0.000000 0.000000 0.000000 0.000000 
-0.633657 17.615144 -1.804861 -133.760806 84.398104 -116.508397 -11.618098 2.707326 0.421504 -9.858370 -2.777934 -3.878830 0.011469 1.438751 26.741505 1.692900 11.402891 8.692493 3.022900 -0.000000 -44.270800 7.256890 -0.319872 2.900462 8.413111 5.812408 -30.439689 3.890709 1.456140 1.144349 0.479844 2.955822 -0.017982 -0.046000 0.000000 -57.144300 3.878217 -4.006307 -2.077003 0.773062 -4.301301 -3.500239 -5.284099 -4.254322 -1.350973 9.264487 -18.381673 -10.478270 -2.186472 -0.135967 -0.724532 0.000000 0.000000 0.000000 7.904608 6.408361 -0.694480 -79.382293 4.896463 34.480732 -179.599816 -68.332386 179.979691 2.095325 -4.277241 -0.086626 0.022620 0.684334 0.000000 0.000000 0.000000 0.000000 0.000000 0.000000 0.000000 4.763249 -12.746240 -0.840666 70.818377 -18.325681 24.145035 179.713115 72.211230 179.972660 -3.198369 10.022338 -0.293920 -0.004632 -0.554149 -0.000000 0.000000 0.000000 0.000000 0.000000 0.000000 0.000000 
-0.401522 17.596858 -1.816034 -135.547487 84.247207 -118.450837 -11.652555 2.687812 0.275887 -9.920900 -2.397040 -4.321375 0.138944 1.550116 29.213037 1.959145 13.235876 8.212047 3.433900 0.000001 -41.115000 7.278134 -0.307288 2.959207 8.123613 6.054447 -30.332363 3.896727 1.437010 1.076153 0.603283 3.640028 0.340511 0.075700 -0.000000 -58.638300 3.833647 -3.975707 -2.002526 0.761726 -4.264565 -3.487951 -5.271255 -4.217126 -1.354227 9.207150 -18.402798 -10.481080 -2.163058 -0.133937 -0.725442 0.000000 0.000000 0.000000 7.953930 6.420014 -0.701454 -79.560767 4.884273 34.616710 -179.611690 -68.579907 179.979848 2.103251 -4.106380 -0.083780 0.022713 0.676097 0.000000 0.000000 0.000000 0.000000 0.000000 0.000000 0.000000 4.644809 -12.741018 -0.829835 70.996460 -18.648560 23.663700 179.716575 72.279701 179.973211 -3.048500 10.017101 -0.279376 -0.009911 -0.551161 0.000000 0.000000 0.000000 0.000000 0.000000 0.000000 0.000000 
-0.171862 17.566325 -1.826615 -136.988109 84.079346 -120.047788 -11.704183 2.651746 0.110757 -9.933708 -1.930865 -4.922876 0.260847 1.669360 31.952536 2.240221 15.130572 7.467805 3.782500 0.000000 -37.871600 7.295800 -0.324952 3.021466 7.834349 6.420198 -30.318589 3.875323 1.347241 1.512313 0.691828 4.129907 0.727603 0.172900 0.000000 -60.072100 3.801281 -3.937108 -1.914208 0.750289 -4.220437 -3.474951 -5.264814 -4.172248 -1.366075 9.157777 -18.393475 -10.480665 -2.144749 -0.132326 -0.726058 0.000000 0.000000 0.000000 7.984065 6.429068 -0.703916 -79.731133 4.874027 34.713023 -179.625295 -68.833966 179.979540 2.161554 -3.958551 -0.083412 0.021104 0.668828 0.000000 0.000000 0.000000 0.000000 0.000000 0.000000 0.000000 4.547416 -12.701430 -0.813593 71.180865 -18.903357 23.224811 179.721495 72.387486 179.973539 -2.954799 9.988956 -0.269620 -0.013575 -0.547989 0.000000 0.000000 0.000000 0.000000 0.000000 0.000000 0.000000 
0.055309 17.523375 -1.836979 -137.993514 83.888425 -121.204564 -11.776989 2.601433 -0.069563 -9.874345 -1.401228 -5.667343 0.375924 1.798939 34.908288 2.523369 16.997711 6.508507 4.030200 -0.000000 -34.657499 7.303645 -0.372283 3.090716 7.565443 6.928404 -30.389782 3.826115 1.195856 2.402735 0.742441 4.393861 1.140805 0.238200 0.000000 -61.367800 3.796845 -3.888406 -1.817829 0.742002 -4.168103 -3.461861 -5.264326 -4.118842 -1.384249 9.117618 -18.352140 -10.480574 -2.131657 -0.131099 -0.727405 0.000000 0.000000 0.000000 7.989492 6.451746 -0.699030 -79.896192 4.847770 34.774572 -179.636374 -69.095611 179.979064 2.238341 -3.835624 -0.084124 0.018589 0.662758 0.000000 0.000000 0.000000 0.000000 0.000000 0.000000 0.000000 4.471736 -12.623386 -0.794046 71.360619 -19.091500 22.830814 179.727800 72.519970 179.973653 -2.912469 9.938664 -0.264152 -0.015824 -0.544774 0.000000 0.000000 0.000000 0.000000 0.000000 0.000000 0.000000 
0.279896 17.468028 -1.847652 -138.562359 83.671235 -121.919280 -11.871445 2.541480 -0.255529 -9.736446 -0.842534 -6.536826 0.484171 1.940826 38.031401 2.795656 18.757488 5.383410 4.149700 -0.000000 -31.617299 7.299592 -0.444896 3.158203 7.353662 7.533945 -30.563883 3.753721 0.987829 3.750723 0.760188 4.470817 1.527769 0.273700 -0.000000 -62.411500 3.829747 -3.829513 -1.715029 0.738749 -4.108137 -3.449214 -5.269625 -4.057532 -1.409027 9.088351 -18.278917 -10.482593 -2.124518 -0.130301 -0.729979 0.000000 0.000000 0.000000 7.962193 6.491204 -0.684533 -80.058960 4.800998 34.795888 -179.642001 -69.365012 179.978725 2.297743 -3.745242 -0.084732 0.016289 0.658243 0.000000 0.000000 0.000000 0.000000 0.000000 0.000000 0.000000 4.422081 -12.505413 -0.771878 71.519770 -19.212519 22.486932 179.734938 72.666980 179.973576 -2.916824 9.869566 -0.262674 -0.016772 -0.541666 0.000000 0.000000 0.000000 0.000000 0.000000 0.000000 0.000000 
0.501928 17.400620 -1.859344 -138.677930 83.418443 -122.170763 -11.989841 2.474771 -0.439510 -9.507493 -0.280464 -7.523673 0.587400 2.096435 41.285358 3.043837 20.332022 4.130837 4.121600 0.000001 -28.865700 7.279070 -0.537830 3.220848 7.232995 8.212640 -30.845094 3.660760 0.733448 5.523555 0.746281 4.375873 1.837141 0.276800 -0.000000 -63.135300 3.917106 -3.759481 -1.610342 0.743654 -4.040900 -3.438569 -5.281751 -3.988818 -1.442726 9.072234 -18.174410 -10.486699 -2.124730 -0.130066 -0.733727 0.000000 0.000000 0.000000 7.888009 6.540829 -0.658360 -80.221453 4.740049 34.765250 -179.640402 -69.645587 179.978797 2.306477 -3.694530 -0.084037 0.015311 0.655558 -0.000000 0.000000 0.000000 0.000000 0.000000 0.000000 0.000000 4.405330 -12.346176 -0.746472 71.638976 -19.265436 22.196209 179.741790 72.818984 179.973347 -2.961157 9.787574 -0.264486 -0.016510 -0.538859 0.000000 0.000000 0.000000 0.000000 0.000000 0.000000 0.000000 
